<svg xmlns="http://www.w3.org/2000/svg" width="750" viewBox="0 0 750 750" height="750" version="1.0"><path d="M 375.722656 135.40625 C 242.683594 135.40625 134.835938 243.253906 134.835938 376.289062 C 134.835938 509.324219 242.683594 617.171875 375.722656 617.171875 C 508.757812 617.171875 616.605469 509.324219 616.605469 376.289062 C 616.605469 243.253906 508.757812 135.40625 375.722656 135.40625"/><g><g><g><path d="M 348.125 -206.40625 C 353.613281 -204.96875 356.488281 -202.941406 356.75 -200.328125 C 357.007812 -197.710938 357.140625 -196.40625 357.140625 -196.40625 C 350.867188 -185.425781 343.679688 -175.363281 335.578125 -166.21875 C 317.023438 -145.570312 295.460938 -129.109375 270.890625 -116.828125 C 258.867188 -110.035156 245.28125 -106.375 230.125 -105.84375 C 195.101562 -105.320312 179.03125 -122.3125 181.90625 -156.8125 C 183.207031 -164.132812 184.90625 -171.320312 187 -178.375 C 188.3125 -181.769531 189.226562 -185.164062 189.75 -188.5625 C 193.144531 -201.113281 194.125 -208.109375 192.6875 -209.546875 C 191.25 -210.984375 187.132812 -207.390625 180.34375 -198.765625 C 178.507812 -197.191406 176.804688 -195.492188 175.234375 -193.671875 C 164.785156 -181.117188 154.070312 -168.832031 143.09375 -156.8125 C 122.96875 -133.8125 99.96875 -114.472656 74.09375 -98.796875 C 58.675781 -89.648438 42.34375 -84.8125 25.09375 -84.28125 C -3.132812 -82.976562 -18.945312 -95.914062 -22.34375 -123.09375 C -23.65625 -134.070312 -23.132812 -144.921875 -20.78125 -155.640625 C -9.28125 -200.066406 13.71875 -233.910156 48.21875 -257.171875 C 82.71875 -280.429688 122.179688 -288.664062 166.609375 -281.875 C 179.160156 -278.21875 188.3125 -281.613281 194.0625 -292.0625 C 196.414062 -295.988281 198.765625 -300.039062 201.109375 -304.21875 C 213.128906 -324.863281 224.890625 -345.507812 236.390625 -366.15625 C 258.085938 -405.882812 279.914062 -445.875 301.875 -486.125 C 319.644531 -517.75 337.414062 -549.632812 355.1875 -581.78125 C 360.414062 -591.707031 366.164062 -601.25 372.4375 -610.40625 C 375.3125 -614.84375 378.90625 -617.519531 383.21875 -618.4375 C 387.53125 -619.351562 392.035156 -619.8125 396.734375 -619.8125 C 397.785156 -619.8125 398.960938 -619.8125 400.265625 -619.8125 C 405.492188 -619.8125 409.675781 -618.503906 412.8125 -615.890625 C 415.945312 -613.273438 416.601562 -609.742188 414.78125 -605.296875 C 411.375 -594.328125 407.320312 -583.875 402.625 -573.9375 C 378.570312 -525.851562 355.894531 -477.175781 334.59375 -427.90625 C 313.300781 -378.644531 292.332031 -329.050781 271.6875 -279.125 C 264.882812 -261.875 257.957031 -244.625 250.90625 -227.375 C 242.28125 -207.25 235.09375 -186.601562 229.34375 -165.4375 C 227.769531 -160.726562 226.984375 -156.085938 226.984375 -151.515625 C 226.984375 -146.941406 229.207031 -142.957031 233.65625 -139.5625 C 236.53125 -137.738281 239.535156 -137.410156 242.671875 -138.578125 C 245.804688 -139.753906 249.203125 -141.128906 252.859375 -142.703125 C 253.378906 -143.484375 254.164062 -144.132812 255.21875 -144.65625 C 280.039062 -159.03125 302.78125 -176.28125 323.4375 -196.40625 C 326.832031 -199.800781 330.421875 -202.675781 334.203125 -205.03125 C 337.992188 -207.382812 342.632812 -207.84375 348.125 -206.40625 Z M 154.46875 -231.6875 C 157.34375 -236.394531 158.191406 -240.90625 157.015625 -245.21875 C 155.835938 -249.53125 152.894531 -252.734375 148.1875 -254.828125 C 138.519531 -260.054688 128.195312 -260.707031 117.21875 -256.78125 C 90.300781 -248.675781 67.757812 -233.253906 49.59375 -210.515625 C 31.425781 -187.785156 21.5625 -162.695312 20 -135.25 C 20.519531 -133.945312 20.78125 -133.035156 20.78125 -132.515625 C 20.78125 -130.160156 20.78125 -127.804688 20.78125 -125.453125 C 23.132812 -112.910156 30.910156 -110.492188 44.109375 -118.203125 C 57.304688 -125.910156 72.070312 -138.390625 88.40625 -155.640625 C 104.738281 -172.890625 119.375 -189.289062 132.3125 -204.84375 C 145.25 -220.394531 152.632812 -229.34375 154.46875 -231.6875 Z M 154.46875 -231.6875" transform="translate(184.434 679.34)"/></g></g></g><g fill="#FFF"><g><g><path d="M 332.078125 -196.890625 C 337.316406 -195.523438 340.0625 -193.59375 340.3125 -191.09375 C 340.5625 -188.601562 340.6875 -187.359375 340.6875 -187.359375 C 334.707031 -176.890625 327.851562 -167.289062 320.125 -158.5625 C 302.414062 -138.863281 281.84375 -123.15625 258.40625 -111.4375 C 246.9375 -104.957031 233.972656 -101.46875 219.515625 -100.96875 C 186.109375 -100.46875 170.773438 -116.675781 173.515625 -149.59375 C 174.765625 -156.570312 176.390625 -163.425781 178.390625 -170.15625 C 179.628906 -173.394531 180.5 -176.632812 181 -179.875 C 184.238281 -191.84375 185.171875 -198.507812 183.796875 -199.875 C 182.429688 -201.25 178.507812 -197.828125 172.03125 -189.609375 C 170.28125 -188.109375 168.660156 -186.484375 167.171875 -184.734375 C 157.191406 -172.773438 146.96875 -161.0625 136.5 -149.59375 C 117.300781 -127.644531 95.363281 -109.191406 70.6875 -94.234375 C 55.96875 -85.515625 40.382812 -80.90625 23.9375 -80.40625 C -2.988281 -79.15625 -18.070312 -91.492188 -21.3125 -117.421875 C -22.5625 -127.898438 -22.066406 -138.25 -19.828125 -148.46875 C -8.847656 -190.851562 13.09375 -223.140625 46 -245.328125 C 78.90625 -267.515625 116.550781 -275.367188 158.9375 -268.890625 C 170.90625 -265.398438 179.628906 -268.640625 185.109375 -278.609375 C 187.359375 -282.347656 189.601562 -286.210938 191.84375 -290.203125 C 203.3125 -309.898438 214.53125 -329.59375 225.5 -349.28125 C 246.195312 -387.175781 267.015625 -425.320312 287.953125 -463.71875 C 304.910156 -493.882812 321.863281 -524.300781 338.8125 -554.96875 C 343.800781 -564.445312 349.285156 -573.546875 355.265625 -582.265625 C 358.015625 -586.503906 361.441406 -589.0625 365.546875 -589.9375 C 369.660156 -590.8125 373.960938 -591.25 378.453125 -591.25 C 379.453125 -591.25 380.578125 -591.25 381.828125 -591.25 C 386.804688 -591.25 390.789062 -590 393.78125 -587.5 C 396.78125 -585.007812 397.40625 -581.644531 395.65625 -577.40625 C 392.414062 -566.9375 388.550781 -556.960938 384.0625 -547.484375 C 361.125 -501.617188 339.492188 -455.1875 319.171875 -408.1875 C 298.859375 -361.1875 278.851562 -313.878906 259.15625 -266.265625 C 252.675781 -249.804688 246.070312 -233.351562 239.34375 -216.90625 C 231.113281 -197.707031 224.253906 -178.007812 218.765625 -157.8125 C 217.273438 -153.320312 216.53125 -148.894531 216.53125 -144.53125 C 216.53125 -140.175781 218.648438 -136.378906 222.890625 -133.140625 C 225.628906 -131.390625 228.492188 -131.070312 231.484375 -132.1875 C 234.472656 -133.3125 237.710938 -134.625 241.203125 -136.125 C 241.703125 -136.875 242.453125 -137.5 243.453125 -138 C 267.140625 -151.707031 288.832031 -168.160156 308.53125 -187.359375 C 311.769531 -190.597656 315.195312 -193.335938 318.8125 -195.578125 C 322.425781 -197.828125 326.847656 -198.265625 332.078125 -196.890625 Z M 147.34375 -221.015625 C 150.082031 -225.503906 150.890625 -229.804688 149.765625 -233.921875 C 148.648438 -238.035156 145.847656 -241.085938 141.359375 -243.078125 C 132.140625 -248.066406 122.289062 -248.691406 111.8125 -244.953125 C 86.132812 -237.222656 64.628906 -222.507812 47.296875 -200.8125 C 29.972656 -179.125 20.566406 -155.191406 19.078125 -129.015625 C 19.578125 -127.773438 19.828125 -126.90625 19.828125 -126.40625 C 19.828125 -124.15625 19.828125 -121.910156 19.828125 -119.671875 C 22.066406 -107.703125 29.476562 -105.394531 42.0625 -112.75 C 54.65625 -120.101562 68.742188 -132.003906 84.328125 -148.453125 C 99.910156 -164.910156 113.867188 -180.554688 126.203125 -195.390625 C 138.546875 -210.234375 145.59375 -218.773438 147.34375 -221.015625 Z M 147.34375 -221.015625" transform="translate(180.516 655.35)"/></g></g></g></svg>