<svg xmlns="http://www.w3.org/2000/svg" width="750" viewBox="0 0 750 750" height="750" version="1.0"><path d="M 379.207031 86.953125 C 220.148438 86.953125 91.207031 215.898438 91.207031 374.953125 C 91.207031 534.011719 220.148438 662.953125 379.207031 662.953125 C 538.265625 662.953125 667.207031 534.011719 667.207031 374.953125 C 667.207031 215.898438 538.265625 86.953125 379.207031 86.953125"/><g><g><g><path d="M 120.78125 -58.875 C 122.195312 -58.46875 122.789062 -57.890625 122.5625 -57.140625 C 122.34375 -56.398438 122.234375 -56.03125 122.234375 -56.03125 C 119.328125 -52.894531 116.234375 -50.023438 112.953125 -47.421875 C 105.566406 -41.523438 97.703125 -36.828125 89.359375 -33.328125 C 85.253906 -31.390625 81.003906 -30.34375 76.609375 -30.1875 C 66.617188 -30.039062 63.820312 -34.890625 68.21875 -44.734375 C 69.332031 -46.816406 70.5625 -48.867188 71.90625 -50.890625 C 72.582031 -51.859375 73.179688 -52.828125 73.703125 -53.796875 C 76.003906 -57.367188 77.023438 -59.359375 76.765625 -59.765625 C 76.503906 -60.179688 74.957031 -59.160156 72.125 -56.703125 C 71.382812 -56.253906 70.71875 -55.769531 70.125 -55.25 C 65.789062 -51.664062 61.460938 -48.160156 57.140625 -44.734375 C 49.015625 -38.171875 40.441406 -32.65625 31.421875 -28.1875 C 26.054688 -25.570312 20.875 -24.191406 15.875 -24.046875 C 7.675781 -23.671875 4.507812 -27.359375 6.375 -35.109375 C 7.195312 -38.242188 8.460938 -41.335938 10.171875 -44.390625 C 18.078125 -57.066406 28.160156 -66.722656 40.421875 -73.359375 C 52.691406 -79.992188 64.828125 -82.34375 76.828125 -80.40625 C 80.035156 -79.363281 82.976562 -80.332031 85.65625 -83.3125 C 86.78125 -84.425781 87.863281 -85.582031 88.90625 -86.78125 C 94.5 -92.664062 100.015625 -98.554688 105.453125 -104.453125 C 115.742188 -115.785156 126.109375 -127.191406 136.546875 -138.671875 C 144.898438 -147.691406 153.285156 -156.785156 161.703125 -165.953125 C 164.242188 -168.785156 166.894531 -171.507812 169.65625 -174.125 C 170.914062 -175.382812 172.195312 -176.144531 173.5 -176.40625 C 174.8125 -176.675781 176.140625 -176.8125 177.484375 -176.8125 C 177.773438 -176.8125 178.109375 -176.8125 178.484375 -176.8125 C 179.972656 -176.8125 181.035156 -176.4375 181.671875 -175.6875 C 182.304688 -174.9375 182.140625 -173.929688 181.171875 -172.671875 C 179.078125 -169.535156 176.835938 -166.550781 174.453125 -163.71875 C 162.597656 -150 151.078125 -136.113281 139.890625 -122.0625 C 128.710938 -108.007812 117.570312 -93.863281 106.46875 -79.625 C 102.738281 -74.707031 98.972656 -69.785156 95.171875 -64.859375 C 90.617188 -59.117188 86.441406 -53.226562 82.640625 -47.1875 C 81.671875 -45.851562 80.941406 -44.53125 80.453125 -43.21875 C 79.972656 -41.914062 80.21875 -40.78125 81.1875 -39.8125 C 81.78125 -39.289062 82.582031 -39.195312 83.59375 -39.53125 C 84.601562 -39.863281 85.703125 -40.253906 86.890625 -40.703125 C 87.191406 -40.929688 87.488281 -41.117188 87.78125 -41.265625 C 96.363281 -45.367188 104.640625 -50.289062 112.609375 -56.03125 C 113.953125 -57 115.296875 -57.816406 116.640625 -58.484375 C 117.984375 -59.160156 119.363281 -59.289062 120.78125 -58.875 Z M 68.109375 -66.09375 C 69.453125 -67.4375 70.175781 -68.722656 70.28125 -69.953125 C 70.394531 -71.179688 69.894531 -72.09375 68.78125 -72.6875 C 66.539062 -74.175781 63.628906 -74.363281 60.046875 -73.25 C 51.554688 -70.9375 43.546875 -66.535156 36.015625 -60.046875 C 28.484375 -53.566406 23.078125 -46.410156 19.796875 -38.578125 C 19.796875 -38.203125 19.757812 -37.941406 19.6875 -37.796875 C 19.457031 -37.128906 19.195312 -36.457031 18.90625 -35.78125 C 18.300781 -32.207031 20.269531 -31.519531 24.8125 -33.71875 C 29.363281 -35.914062 34.882812 -39.472656 41.375 -44.390625 C 47.863281 -49.316406 53.753906 -54 59.046875 -58.4375 C 64.335938 -62.875 67.359375 -65.425781 68.109375 -66.09375 Z M 68.109375 -66.09375" transform="translate(33.662 433.424)"/></g></g></g><g><g><g><path d="M 101.875 -56.96875 C 103.289062 -55.96875 102.546875 -53.53125 99.640625 -49.65625 C 96.429688 -46.820312 93.148438 -44.171875 89.796875 -41.703125 C 86.441406 -39.242188 82.9375 -37.046875 79.28125 -35.109375 C 79.0625 -35.109375 78.953125 -35.035156 78.953125 -34.890625 C 76.492188 -33.546875 73.992188 -32.390625 71.453125 -31.421875 C 51.328125 -25.015625 43.613281 -28.78125 48.3125 -42.71875 C 38.769531 -36.457031 32.546875 -32.617188 29.640625 -31.203125 C 22.398438 -27.691406 15.425781 -26.125 8.71875 -26.5 C 3.800781 -26.800781 0.929688 -28.347656 0.109375 -31.140625 C -0.710938 -33.941406 0.816406 -37.726562 4.703125 -42.5 C 10.734375 -50.03125 17.851562 -56.738281 26.0625 -62.625 C 35.53125 -69.1875 45.296875 -74.441406 55.359375 -78.390625 C 60.796875 -80.703125 65.976562 -81.597656 70.90625 -81.078125 C 75.820312 -80.773438 77.832031 -77.90625 76.9375 -72.46875 C 76.789062 -70.820312 75.859375 -69.367188 74.140625 -68.109375 C 71.910156 -66.617188 69.863281 -66.28125 68 -67.09375 C 67.84375 -67.09375 67.648438 -67.128906 67.421875 -67.203125 C 67.203125 -67.285156 67.054688 -67.398438 66.984375 -67.546875 C 65.867188 -70.523438 64.132812 -71.769531 61.78125 -71.28125 C 59.4375 -70.800781 56.734375 -69.816406 53.671875 -68.328125 C 39.804688 -61.617188 27.878906 -52.265625 17.890625 -40.265625 C 17.367188 -39.742188 16.957031 -39.164062 16.65625 -38.53125 C 16.363281 -37.894531 16.363281 -37.390625 16.65625 -37.015625 C 17.851562 -36.566406 19.382812 -36.660156 21.25 -37.296875 C 23.113281 -37.929688 25.085938 -38.863281 27.171875 -40.09375 C 29.265625 -41.320312 31.019531 -42.347656 32.4375 -43.171875 C 32.726562 -43.390625 32.875 -43.5 32.875 -43.5 C 39.957031 -48.050781 46.96875 -52.710938 53.90625 -57.484375 C 57.113281 -59.941406 60.503906 -61.320312 64.078125 -61.625 C 68.992188 -61.625 70.222656 -59.421875 67.765625 -55.015625 C 66.722656 -53.378906 65.644531 -51.738281 64.53125 -50.09375 C 59.976562 -43.019531 58.375 -38.863281 59.71875 -37.625 C 61.0625 -36.394531 63.800781 -36.394531 67.9375 -37.625 C 72.070312 -38.863281 76.617188 -41.210938 81.578125 -44.671875 C 86.535156 -48.140625 90.800781 -51.304688 94.375 -54.171875 C 97.957031 -57.046875 100.457031 -57.976562 101.875 -56.96875 Z M 101.875 -56.96875" transform="translate(128.527 433.424)"/></g></g></g><g><g><g><path d="M 108.921875 -55.796875 C 109.515625 -54.304688 107.015625 -51.585938 101.421875 -47.640625 C 95.835938 -43.691406 90.210938 -40.375 84.546875 -37.6875 C 78.878906 -35 72.429688 -32.316406 65.203125 -29.640625 C 60.503906 -27.847656 55.953125 -27.25 51.546875 -27.84375 C 47.148438 -28.4375 45.847656 -31.226562 47.640625 -36.21875 C 49.429688 -41.21875 52.375 -46.179688 56.46875 -51.109375 C 60.644531 -56.179688 62.117188 -58.789062 60.890625 -58.9375 C 59.660156 -59.082031 56.507812 -57.851562 51.4375 -55.25 C 38.238281 -48.238281 25.414062 -40.222656 12.96875 -31.203125 C 9.394531 -28.222656 5.671875 -26.582031 1.796875 -26.28125 C -0.148438 -26.28125 -1.4375 -26.894531 -2.0625 -28.125 C -2.695312 -29.351562 -2.382812 -30.675781 -1.125 -32.09375 C 9.914062 -44.25 20.953125 -56.253906 31.984375 -68.109375 C 34.367188 -70.566406 37.164062 -72.09375 40.375 -72.6875 C 41.71875 -72.914062 42.742188 -72.523438 43.453125 -71.515625 C 44.160156 -70.503906 44.289062 -69.367188 43.84375 -68.109375 C 43.238281 -66.910156 42.226562 -65.492188 40.8125 -63.859375 C 40.070312 -62.890625 39.363281 -61.957031 38.6875 -61.0625 C 38.019531 -60.164062 37.648438 -59.414062 37.578125 -58.8125 C 37.503906 -58.21875 37.914062 -58.035156 38.8125 -58.265625 C 40.144531 -58.859375 41.484375 -59.492188 42.828125 -60.171875 C 46.253906 -61.804688 49.535156 -63.367188 52.671875 -64.859375 C 55.503906 -66.203125 58.375 -67.394531 61.28125 -68.4375 C 64.1875 -69.476562 67.09375 -70.1875 70 -70.5625 C 74.550781 -70.863281 77.347656 -69.859375 78.390625 -67.546875 C 79.429688 -65.234375 78.5 -62.023438 75.59375 -57.921875 C 72.6875 -54.203125 69.78125 -50.515625 66.875 -46.859375 C 63.59375 -43.429688 62.285156 -40.820312 62.953125 -39.03125 C 63.628906 -37.238281 70.601562 -39.289062 83.875 -45.1875 L 94.046875 -50.09375 C 103.816406 -55.164062 108.773438 -57.066406 108.921875 -55.796875 Z M 108.921875 -55.796875" transform="translate(204.044 433.424)"/></g></g></g><g><g><g><path d="M 108.921875 -55.796875 C 109.515625 -54.304688 107.015625 -51.585938 101.421875 -47.640625 C 95.835938 -43.691406 90.210938 -40.375 84.546875 -37.6875 C 78.878906 -35 72.429688 -32.316406 65.203125 -29.640625 C 60.503906 -27.847656 55.953125 -27.25 51.546875 -27.84375 C 47.148438 -28.4375 45.847656 -31.226562 47.640625 -36.21875 C 49.429688 -41.21875 52.375 -46.179688 56.46875 -51.109375 C 60.644531 -56.179688 62.117188 -58.789062 60.890625 -58.9375 C 59.660156 -59.082031 56.507812 -57.851562 51.4375 -55.25 C 38.238281 -48.238281 25.414062 -40.222656 12.96875 -31.203125 C 9.394531 -28.222656 5.671875 -26.582031 1.796875 -26.28125 C -0.148438 -26.28125 -1.4375 -26.894531 -2.0625 -28.125 C -2.695312 -29.351562 -2.382812 -30.675781 -1.125 -32.09375 C 9.914062 -44.25 20.953125 -56.253906 31.984375 -68.109375 C 34.367188 -70.566406 37.164062 -72.09375 40.375 -72.6875 C 41.71875 -72.914062 42.742188 -72.523438 43.453125 -71.515625 C 44.160156 -70.503906 44.289062 -69.367188 43.84375 -68.109375 C 43.238281 -66.910156 42.226562 -65.492188 40.8125 -63.859375 C 40.070312 -62.890625 39.363281 -61.957031 38.6875 -61.0625 C 38.019531 -60.164062 37.648438 -59.414062 37.578125 -58.8125 C 37.503906 -58.21875 37.914062 -58.035156 38.8125 -58.265625 C 40.144531 -58.859375 41.484375 -59.492188 42.828125 -60.171875 C 46.253906 -61.804688 49.535156 -63.367188 52.671875 -64.859375 C 55.503906 -66.203125 58.375 -67.394531 61.28125 -68.4375 C 64.1875 -69.476562 67.09375 -70.1875 70 -70.5625 C 74.550781 -70.863281 77.347656 -69.859375 78.390625 -67.546875 C 79.429688 -65.234375 78.5 -62.023438 75.59375 -57.921875 C 72.6875 -54.203125 69.78125 -50.515625 66.875 -46.859375 C 63.59375 -43.429688 62.285156 -40.820312 62.953125 -39.03125 C 63.628906 -37.238281 70.601562 -39.289062 83.875 -45.1875 L 94.046875 -50.09375 C 103.816406 -55.164062 108.773438 -57.066406 108.921875 -55.796875 Z M 108.921875 -55.796875" transform="translate(287.39 433.424)"/></g></g></g><g><g><g><path d="M 109.03125 -58.3125 C 109.332031 -56.414062 106.664062 -53.507812 101.03125 -49.59375 C 95.40625 -45.675781 86.332031 -40.925781 73.8125 -35.34375 C 69.257812 -33.695312 65.921875 -32.390625 63.796875 -31.421875 C 61.671875 -30.453125 59.914062 -29.222656 58.53125 -27.734375 C 57.15625 -26.242188 55.425781 -23.929688 53.34375 -20.796875 C 51.625 -18.484375 49.390625 -15.390625 46.640625 -11.515625 C 43.128906 -6.742188 39.546875 -1.820312 35.890625 3.25 C 28.890625 13.601562 21.285156 23.832031 13.078125 33.9375 C 4.878906 44.039062 -4.15625 52.859375 -14.03125 60.390625 C -23.914062 67.921875 -34.929688 72.914062 -47.078125 75.375 C -59.234375 77.539062 -70.320312 77.875 -80.34375 76.375 C -90.375 74.882812 -99.675781 71.941406 -108.25 67.546875 C -111.675781 65.679688 -114.472656 63.222656 -116.640625 60.171875 C -120.066406 54.578125 -118.203125 48.3125 -111.046875 41.375 C -107.316406 37.945312 -103.289062 34.851562 -98.96875 32.09375 C -90.539062 26.800781 -81.929688 21.957031 -73.140625 17.5625 C -56.890625 9.507812 -40.5625 2.128906 -24.15625 -4.578125 C -7.75 -11.296875 8.6875 -17.785156 25.15625 -24.046875 C 26.28125 -24.492188 27.550781 -24.976562 28.96875 -25.5 C 33.507812 -27.289062 38.128906 -29.078125 42.828125 -30.859375 C 46.109375 -31.910156 48.71875 -33.8125 50.65625 -36.5625 C 51.332031 -37.53125 51.742188 -38.425781 51.890625 -39.25 C 51.890625 -39.769531 51.703125 -40.066406 51.328125 -40.140625 C 50.953125 -40.222656 50.46875 -40.113281 49.875 -39.8125 C 48.164062 -38.988281 46.335938 -38.054688 44.390625 -37.015625 C 43.421875 -36.566406 42.34375 -36.007812 41.15625 -35.34375 C 34.894531 -32.351562 29.078125 -31.046875 23.703125 -31.421875 C 14.984375 -31.421875 11.96875 -35.335938 14.65625 -43.171875 C 16.882812 -49.578125 20.21875 -55.648438 24.65625 -61.390625 C 29.09375 -67.128906 34.40625 -72.535156 40.59375 -77.609375 C 41.1875 -78.128906 41.945312 -78.554688 42.875 -78.890625 C 43.8125 -79.234375 44.726562 -79.476562 45.625 -79.625 C 45.769531 -79.625 45.992188 -79.695312 46.296875 -79.84375 C 48.015625 -80 49.132812 -79.585938 49.65625 -78.609375 C 50.175781 -77.640625 49.914062 -76.410156 48.875 -74.921875 C 47.15625 -72.835938 45.398438 -70.710938 43.609375 -68.546875 C 42.191406 -66.910156 40.773438 -65.269531 39.359375 -63.625 C 33.773438 -57.21875 29.863281 -50.507812 27.625 -43.5 C 27.175781 -42.007812 27.414062 -40.925781 28.34375 -40.25 C 29.28125 -39.582031 30.601562 -39.585938 32.3125 -40.265625 C 37.382812 -42.046875 42.160156 -44.578125 46.640625 -47.859375 C 58.410156 -55.910156 69.070312 -65.191406 78.625 -75.703125 C 80.039062 -77.203125 81.472656 -78.472656 82.921875 -79.515625 C 84.378906 -80.554688 86.039062 -81.148438 87.90625 -81.296875 C 90.289062 -81.523438 91.875 -81.023438 92.65625 -79.796875 C 93.4375 -78.566406 93.191406 -76.941406 91.921875 -74.921875 C 87.378906 -68.210938 82.757812 -61.578125 78.0625 -55.015625 C 77.757812 -54.492188 77.382812 -54.007812 76.9375 -53.5625 C 75.820312 -52.070312 74.703125 -50.503906 73.578125 -48.859375 C 72.460938 -47.222656 71.679688 -45.789062 71.234375 -44.5625 C 70.785156 -43.332031 71.082031 -42.71875 72.125 -42.71875 C 76.53125 -43.539062 83.707031 -46.820312 93.65625 -52.5625 C 103.613281 -58.300781 108.738281 -60.21875 109.03125 -58.3125 Z M 34.109375 -13.421875 C 34.179688 -13.796875 34.40625 -14.128906 34.78125 -14.421875 C 35.519531 -15.242188 36.09375 -16.140625 36.5 -17.109375 C 36.914062 -18.078125 37.050781 -19.082031 36.90625 -20.125 C 36.382812 -20.125 35.972656 -20.125 35.671875 -20.125 C 34.484375 -19.90625 33.441406 -19.644531 32.546875 -19.34375 C 30.679688 -18.675781 28.78125 -17.929688 26.84375 -17.109375 C 11.476562 -11.066406 -3.914062 -4.84375 -19.34375 1.5625 C -34.78125 7.976562 -50.140625 14.800781 -65.421875 22.03125 C -74.660156 26.425781 -83.753906 31.570312 -92.703125 37.46875 C -100.015625 42.382812 -104.226562 46.6875 -105.34375 50.375 C -106.457031 54.070312 -104.445312 57.410156 -99.3125 60.390625 C -87.75 67.765625 -73.507812 70.785156 -56.59375 69.453125 C -45.03125 68.328125 -34.421875 64.109375 -24.765625 56.796875 C -15.109375 49.492188 -6.21875 40.753906 1.90625 30.578125 C 10.03125 20.410156 17.597656 10.253906 24.609375 0.109375 C 27.734375 -4.660156 30.898438 -9.171875 34.109375 -13.421875 Z M 34.109375 -13.421875" transform="translate(370.736 433.424)"/></g></g></g><g><g><g><path d="M 27.40625 -26.5 L 27.0625 -26.5 C 16.320312 -26.65625 10.078125 -29.0625 8.328125 -33.71875 C 6.578125 -38.375 8.984375 -44.582031 15.546875 -52.34375 C 20.835938 -58.226562 26.691406 -63.367188 33.109375 -67.765625 C 35.265625 -69.253906 37.367188 -70.445312 39.421875 -71.34375 C 41.472656 -72.238281 43.578125 -72.6875 45.734375 -72.6875 C 47.078125 -72.914062 48.421875 -72.691406 49.765625 -72.015625 C 50.285156 -71.867188 50.769531 -71.679688 51.21875 -71.453125 C 52.5625 -71.679688 53.941406 -72.09375 55.359375 -72.6875 C 55.734375 -72.914062 56.179688 -73.101562 56.703125 -73.25 C 59.535156 -74.21875 62.289062 -74.628906 64.96875 -74.484375 C 66.09375 -74.484375 67.25 -74.484375 68.4375 -74.484375 C 72.613281 -73.804688 75.28125 -71.957031 76.4375 -68.9375 C 77.59375 -65.925781 77.050781 -62.253906 74.8125 -57.921875 C 73.46875 -55.316406 71.753906 -52.859375 69.671875 -50.546875 C 55.503906 -35.191406 41.632812 -27.175781 28.0625 -26.5 Z M 59.71875 -66.546875 C 53.90625 -66.765625 48.035156 -65.066406 42.109375 -61.453125 C 36.179688 -57.835938 31.238281 -53.679688 27.28125 -48.984375 C 23.332031 -44.285156 21.320312 -40.425781 21.25 -37.40625 C 21.175781 -34.382812 24.007812 -33.546875 29.75 -34.890625 C 36.238281 -36.679688 42.628906 -40.035156 48.921875 -44.953125 C 55.222656 -49.878906 59.695312 -54.554688 62.34375 -58.984375 C 64.988281 -63.421875 64.113281 -65.941406 59.71875 -66.546875 Z M 59.71875 -66.546875" transform="translate(453.523 433.424)"/></g></g></g><g><g><g><path d="M 137.21875 -56.03125 C 140.425781 -57.664062 142.625 -58.070312 143.8125 -57.25 C 145.007812 -56.4375 143.628906 -54.128906 139.671875 -50.328125 C 134.753906 -45.921875 127.171875 -41.21875 116.921875 -36.21875 C 106.671875 -31.226562 98.410156 -29.050781 92.140625 -29.6875 C 85.878906 -30.320312 85.734375 -35.113281 91.703125 -44.0625 C 97.671875 -53.007812 100.96875 -58.019531 101.59375 -59.09375 C 102.226562 -60.175781 102.25 -60.789062 101.65625 -60.9375 C 101.0625 -61.09375 99.3125 -60.351562 96.40625 -58.71875 C 88.050781 -54.09375 79.734375 -49.242188 71.453125 -44.171875 C 67.953125 -42.085938 64.414062 -39.890625 60.84375 -37.578125 C 58.675781 -36.085938 56.4375 -34.597656 54.125 -33.109375 C 54.125 -33.109375 54.015625 -33.03125 53.796875 -32.875 C 51.179688 -30.9375 48.3125 -29.632812 45.1875 -28.96875 C 43.769531 -28.59375 42.390625 -28.457031 41.046875 -28.5625 C 39.703125 -28.675781 38.691406 -29.21875 38.015625 -30.1875 C 37.347656 -31.3125 37.382812 -32.488281 38.125 -33.71875 C 38.875 -34.945312 40.476562 -36.789062 42.9375 -39.25 C 45.40625 -41.707031 48.128906 -44.410156 51.109375 -47.359375 C 54.085938 -50.304688 55.800781 -52.113281 56.25 -52.78125 C 56.695312 -53.457031 56.8125 -54.128906 56.59375 -54.796875 C 56.363281 -55.460938 55.875 -55.664062 55.125 -55.40625 C 54.382812 -55.144531 51.421875 -53.539062 46.234375 -50.59375 C 41.054688 -47.65625 33.957031 -43.539062 24.9375 -38.25 C 20.757812 -35.789062 16.660156 -33.253906 12.640625 -30.640625 C 11.515625 -29.816406 10.320312 -29.070312 9.0625 -28.40625 C 6.070312 -26.46875 3.160156 -25.425781 0.328125 -25.28125 C -1.679688 -25.125 -2.984375 -25.566406 -3.578125 -26.609375 C -4.171875 -27.660156 -3.835938 -29.078125 -2.578125 -30.859375 C -1.609375 -32.203125 -0.597656 -33.4375 0.453125 -34.5625 C 1.046875 -35.082031 1.53125 -35.601562 1.90625 -36.125 C 12.113281 -48.050781 22.25 -60.015625 32.3125 -72.015625 C 32.613281 -72.316406 32.914062 -72.726562 33.21875 -73.25 C 34.40625 -74.519531 35.519531 -75.75 36.5625 -76.9375 C 39.101562 -78.875 41.488281 -79.507812 43.71875 -78.84375 C 46.257812 -78.019531 46.75 -76.378906 45.1875 -73.921875 C 42.425781 -70.191406 39.773438 -66.5 37.234375 -62.84375 C 35.972656 -61.207031 34.707031 -59.566406 33.4375 -57.921875 C 31.195312 -55.015625 30.132812 -53.148438 30.25 -52.328125 C 30.363281 -51.515625 32.429688 -52.078125 36.453125 -54.015625 C 39.210938 -55.503906 41.9375 -56.992188 44.625 -58.484375 C 47.90625 -60.273438 51.035156 -61.914062 54.015625 -63.40625 C 58.710938 -65.71875 63.332031 -67.691406 67.875 -69.328125 C 70.113281 -70.148438 72.332031 -70.765625 74.53125 -71.171875 C 76.726562 -71.585938 78.460938 -71.125 79.734375 -69.78125 C 80.703125 -68.664062 80.832031 -67.398438 80.125 -65.984375 C 79.414062 -64.566406 78.539062 -63.222656 77.5 -61.953125 C 75.5625 -59.492188 74.554688 -57.925781 74.484375 -57.25 C 74.410156 -56.582031 74.929688 -56.453125 76.046875 -56.859375 C 77.160156 -57.273438 79.226562 -58.226562 82.25 -59.71875 C 85.269531 -61.207031 88.492188 -62.847656 91.921875 -64.640625 C 96.398438 -66.953125 100.988281 -69.148438 105.6875 -71.234375 C 109.707031 -73.398438 113.691406 -74.707031 117.640625 -75.15625 C 122.859375 -75.519531 124.179688 -73.445312 121.609375 -68.9375 C 119.046875 -64.425781 115.300781 -59.054688 110.375 -52.828125 C 105.457031 -46.609375 103.800781 -42.789062 105.40625 -41.375 C 107.007812 -39.957031 112.410156 -41.875 121.609375 -47.125 C 130.816406 -52.382812 136.019531 -55.351562 137.21875 -56.03125 Z M 137.21875 -56.03125" transform="translate(514.279 433.424)"/></g></g></g><g><g><g><path d="M 27.40625 -26.5 L 27.0625 -26.5 C 16.320312 -26.65625 10.078125 -29.0625 8.328125 -33.71875 C 6.578125 -38.375 8.984375 -44.582031 15.546875 -52.34375 C 20.835938 -58.226562 26.691406 -63.367188 33.109375 -67.765625 C 35.265625 -69.253906 37.367188 -70.445312 39.421875 -71.34375 C 41.472656 -72.238281 43.578125 -72.6875 45.734375 -72.6875 C 47.078125 -72.914062 48.421875 -72.691406 49.765625 -72.015625 C 50.285156 -71.867188 50.769531 -71.679688 51.21875 -71.453125 C 52.5625 -71.679688 53.941406 -72.09375 55.359375 -72.6875 C 55.734375 -72.914062 56.179688 -73.101562 56.703125 -73.25 C 59.535156 -74.21875 62.289062 -74.628906 64.96875 -74.484375 C 66.09375 -74.484375 67.25 -74.484375 68.4375 -74.484375 C 72.613281 -73.804688 75.28125 -71.957031 76.4375 -68.9375 C 77.59375 -65.925781 77.050781 -62.253906 74.8125 -57.921875 C 73.46875 -55.316406 71.753906 -52.859375 69.671875 -50.546875 C 55.503906 -35.191406 41.632812 -27.175781 28.0625 -26.5 Z M 59.71875 -66.546875 C 53.90625 -66.765625 48.035156 -65.066406 42.109375 -61.453125 C 36.179688 -57.835938 31.238281 -53.679688 27.28125 -48.984375 C 23.332031 -44.285156 21.320312 -40.425781 21.25 -37.40625 C 21.175781 -34.382812 24.007812 -33.546875 29.75 -34.890625 C 36.238281 -36.679688 42.628906 -40.035156 48.921875 -44.953125 C 55.222656 -49.878906 59.695312 -54.554688 62.34375 -58.984375 C 64.988281 -63.421875 64.113281 -65.941406 59.71875 -66.546875 Z M 59.71875 -66.546875" transform="translate(633.97 433.424)"/></g></g></g><g fill="#FFF"><g><g><path d="M 120.78125 -58.875 C 122.195312 -58.46875 122.789062 -57.890625 122.5625 -57.140625 C 122.34375 -56.398438 122.234375 -56.03125 122.234375 -56.03125 C 119.328125 -52.894531 116.234375 -50.023438 112.953125 -47.421875 C 105.566406 -41.523438 97.703125 -36.828125 89.359375 -33.328125 C 85.253906 -31.390625 81.003906 -30.34375 76.609375 -30.1875 C 66.617188 -30.039062 63.820312 -34.890625 68.21875 -44.734375 C 69.332031 -46.816406 70.5625 -48.867188 71.90625 -50.890625 C 72.582031 -51.859375 73.179688 -52.828125 73.703125 -53.796875 C 76.003906 -57.367188 77.023438 -59.359375 76.765625 -59.765625 C 76.503906 -60.179688 74.957031 -59.160156 72.125 -56.703125 C 71.382812 -56.253906 70.71875 -55.769531 70.125 -55.25 C 65.789062 -51.664062 61.460938 -48.160156 57.140625 -44.734375 C 49.015625 -38.171875 40.441406 -32.65625 31.421875 -28.1875 C 26.054688 -25.570312 20.875 -24.191406 15.875 -24.046875 C 7.675781 -23.671875 4.507812 -27.359375 6.375 -35.109375 C 7.195312 -38.242188 8.460938 -41.335938 10.171875 -44.390625 C 18.078125 -57.066406 28.160156 -66.722656 40.421875 -73.359375 C 52.691406 -79.992188 64.828125 -82.34375 76.828125 -80.40625 C 80.035156 -79.363281 82.976562 -80.332031 85.65625 -83.3125 C 86.78125 -84.425781 87.863281 -85.582031 88.90625 -86.78125 C 94.5 -92.664062 100.015625 -98.554688 105.453125 -104.453125 C 115.742188 -115.785156 126.109375 -127.191406 136.546875 -138.671875 C 144.898438 -147.691406 153.285156 -156.785156 161.703125 -165.953125 C 164.242188 -168.785156 166.894531 -171.507812 169.65625 -174.125 C 170.914062 -175.382812 172.195312 -176.144531 173.5 -176.40625 C 174.8125 -176.675781 176.140625 -176.8125 177.484375 -176.8125 C 177.773438 -176.8125 178.109375 -176.8125 178.484375 -176.8125 C 179.972656 -176.8125 181.035156 -176.4375 181.671875 -175.6875 C 182.304688 -174.9375 182.140625 -173.929688 181.171875 -172.671875 C 179.078125 -169.535156 176.835938 -166.550781 174.453125 -163.71875 C 162.597656 -150 151.078125 -136.113281 139.890625 -122.0625 C 128.710938 -108.007812 117.570312 -93.863281 106.46875 -79.625 C 102.738281 -74.707031 98.972656 -69.785156 95.171875 -64.859375 C 90.617188 -59.117188 86.441406 -53.226562 82.640625 -47.1875 C 81.671875 -45.851562 80.941406 -44.53125 80.453125 -43.21875 C 79.972656 -41.914062 80.21875 -40.78125 81.1875 -39.8125 C 81.78125 -39.289062 82.582031 -39.195312 83.59375 -39.53125 C 84.601562 -39.863281 85.703125 -40.253906 86.890625 -40.703125 C 87.191406 -40.929688 87.488281 -41.117188 87.78125 -41.265625 C 96.363281 -45.367188 104.640625 -50.289062 112.609375 -56.03125 C 113.953125 -57 115.296875 -57.816406 116.640625 -58.484375 C 117.984375 -59.160156 119.363281 -59.289062 120.78125 -58.875 Z M 68.109375 -66.09375 C 69.453125 -67.4375 70.175781 -68.722656 70.28125 -69.953125 C 70.394531 -71.179688 69.894531 -72.09375 68.78125 -72.6875 C 66.539062 -74.175781 63.628906 -74.363281 60.046875 -73.25 C 51.554688 -70.9375 43.546875 -66.535156 36.015625 -60.046875 C 28.484375 -53.566406 23.078125 -46.410156 19.796875 -38.578125 C 19.796875 -38.203125 19.757812 -37.941406 19.6875 -37.796875 C 19.457031 -37.128906 19.195312 -36.457031 18.90625 -35.78125 C 18.300781 -32.207031 20.269531 -31.519531 24.8125 -33.71875 C 29.363281 -35.914062 34.882812 -39.472656 41.375 -44.390625 C 47.863281 -49.316406 53.753906 -54 59.046875 -58.4375 C 64.335938 -62.875 67.359375 -65.425781 68.109375 -66.09375 Z M 68.109375 -66.09375" transform="translate(33.662 427.14)"/></g></g></g><g fill="#FFF"><g><g><path d="M 101.875 -56.96875 C 103.289062 -55.96875 102.546875 -53.53125 99.640625 -49.65625 C 96.429688 -46.820312 93.148438 -44.171875 89.796875 -41.703125 C 86.441406 -39.242188 82.9375 -37.046875 79.28125 -35.109375 C 79.0625 -35.109375 78.953125 -35.035156 78.953125 -34.890625 C 76.492188 -33.546875 73.992188 -32.390625 71.453125 -31.421875 C 51.328125 -25.015625 43.613281 -28.78125 48.3125 -42.71875 C 38.769531 -36.457031 32.546875 -32.617188 29.640625 -31.203125 C 22.398438 -27.691406 15.425781 -26.125 8.71875 -26.5 C 3.800781 -26.800781 0.929688 -28.347656 0.109375 -31.140625 C -0.710938 -33.941406 0.816406 -37.726562 4.703125 -42.5 C 10.734375 -50.03125 17.851562 -56.738281 26.0625 -62.625 C 35.53125 -69.1875 45.296875 -74.441406 55.359375 -78.390625 C 60.796875 -80.703125 65.976562 -81.597656 70.90625 -81.078125 C 75.820312 -80.773438 77.832031 -77.90625 76.9375 -72.46875 C 76.789062 -70.820312 75.859375 -69.367188 74.140625 -68.109375 C 71.910156 -66.617188 69.863281 -66.28125 68 -67.09375 C 67.84375 -67.09375 67.648438 -67.128906 67.421875 -67.203125 C 67.203125 -67.285156 67.054688 -67.398438 66.984375 -67.546875 C 65.867188 -70.523438 64.132812 -71.769531 61.78125 -71.28125 C 59.4375 -70.800781 56.734375 -69.816406 53.671875 -68.328125 C 39.804688 -61.617188 27.878906 -52.265625 17.890625 -40.265625 C 17.367188 -39.742188 16.957031 -39.164062 16.65625 -38.53125 C 16.363281 -37.894531 16.363281 -37.390625 16.65625 -37.015625 C 17.851562 -36.566406 19.382812 -36.660156 21.25 -37.296875 C 23.113281 -37.929688 25.085938 -38.863281 27.171875 -40.09375 C 29.265625 -41.320312 31.019531 -42.347656 32.4375 -43.171875 C 32.726562 -43.390625 32.875 -43.5 32.875 -43.5 C 39.957031 -48.050781 46.96875 -52.710938 53.90625 -57.484375 C 57.113281 -59.941406 60.503906 -61.320312 64.078125 -61.625 C 68.992188 -61.625 70.222656 -59.421875 67.765625 -55.015625 C 66.722656 -53.378906 65.644531 -51.738281 64.53125 -50.09375 C 59.976562 -43.019531 58.375 -38.863281 59.71875 -37.625 C 61.0625 -36.394531 63.800781 -36.394531 67.9375 -37.625 C 72.070312 -38.863281 76.617188 -41.210938 81.578125 -44.671875 C 86.535156 -48.140625 90.800781 -51.304688 94.375 -54.171875 C 97.957031 -57.046875 100.457031 -57.976562 101.875 -56.96875 Z M 101.875 -56.96875" transform="translate(128.527 427.14)"/></g></g></g><g fill="#FFF"><g><g><path d="M 108.921875 -55.796875 C 109.515625 -54.304688 107.015625 -51.585938 101.421875 -47.640625 C 95.835938 -43.691406 90.210938 -40.375 84.546875 -37.6875 C 78.878906 -35 72.429688 -32.316406 65.203125 -29.640625 C 60.503906 -27.847656 55.953125 -27.25 51.546875 -27.84375 C 47.148438 -28.4375 45.847656 -31.226562 47.640625 -36.21875 C 49.429688 -41.21875 52.375 -46.179688 56.46875 -51.109375 C 60.644531 -56.179688 62.117188 -58.789062 60.890625 -58.9375 C 59.660156 -59.082031 56.507812 -57.851562 51.4375 -55.25 C 38.238281 -48.238281 25.414062 -40.222656 12.96875 -31.203125 C 9.394531 -28.222656 5.671875 -26.582031 1.796875 -26.28125 C -0.148438 -26.28125 -1.4375 -26.894531 -2.0625 -28.125 C -2.695312 -29.351562 -2.382812 -30.675781 -1.125 -32.09375 C 9.914062 -44.25 20.953125 -56.253906 31.984375 -68.109375 C 34.367188 -70.566406 37.164062 -72.09375 40.375 -72.6875 C 41.71875 -72.914062 42.742188 -72.523438 43.453125 -71.515625 C 44.160156 -70.503906 44.289062 -69.367188 43.84375 -68.109375 C 43.238281 -66.910156 42.226562 -65.492188 40.8125 -63.859375 C 40.070312 -62.890625 39.363281 -61.957031 38.6875 -61.0625 C 38.019531 -60.164062 37.648438 -59.414062 37.578125 -58.8125 C 37.503906 -58.21875 37.914062 -58.035156 38.8125 -58.265625 C 40.144531 -58.859375 41.484375 -59.492188 42.828125 -60.171875 C 46.253906 -61.804688 49.535156 -63.367188 52.671875 -64.859375 C 55.503906 -66.203125 58.375 -67.394531 61.28125 -68.4375 C 64.1875 -69.476562 67.09375 -70.1875 70 -70.5625 C 74.550781 -70.863281 77.347656 -69.859375 78.390625 -67.546875 C 79.429688 -65.234375 78.5 -62.023438 75.59375 -57.921875 C 72.6875 -54.203125 69.78125 -50.515625 66.875 -46.859375 C 63.59375 -43.429688 62.285156 -40.820312 62.953125 -39.03125 C 63.628906 -37.238281 70.601562 -39.289062 83.875 -45.1875 L 94.046875 -50.09375 C 103.816406 -55.164062 108.773438 -57.066406 108.921875 -55.796875 Z M 108.921875 -55.796875" transform="translate(204.044 427.14)"/></g></g></g><g fill="#FFF"><g><g><path d="M 108.921875 -55.796875 C 109.515625 -54.304688 107.015625 -51.585938 101.421875 -47.640625 C 95.835938 -43.691406 90.210938 -40.375 84.546875 -37.6875 C 78.878906 -35 72.429688 -32.316406 65.203125 -29.640625 C 60.503906 -27.847656 55.953125 -27.25 51.546875 -27.84375 C 47.148438 -28.4375 45.847656 -31.226562 47.640625 -36.21875 C 49.429688 -41.21875 52.375 -46.179688 56.46875 -51.109375 C 60.644531 -56.179688 62.117188 -58.789062 60.890625 -58.9375 C 59.660156 -59.082031 56.507812 -57.851562 51.4375 -55.25 C 38.238281 -48.238281 25.414062 -40.222656 12.96875 -31.203125 C 9.394531 -28.222656 5.671875 -26.582031 1.796875 -26.28125 C -0.148438 -26.28125 -1.4375 -26.894531 -2.0625 -28.125 C -2.695312 -29.351562 -2.382812 -30.675781 -1.125 -32.09375 C 9.914062 -44.25 20.953125 -56.253906 31.984375 -68.109375 C 34.367188 -70.566406 37.164062 -72.09375 40.375 -72.6875 C 41.71875 -72.914062 42.742188 -72.523438 43.453125 -71.515625 C 44.160156 -70.503906 44.289062 -69.367188 43.84375 -68.109375 C 43.238281 -66.910156 42.226562 -65.492188 40.8125 -63.859375 C 40.070312 -62.890625 39.363281 -61.957031 38.6875 -61.0625 C 38.019531 -60.164062 37.648438 -59.414062 37.578125 -58.8125 C 37.503906 -58.21875 37.914062 -58.035156 38.8125 -58.265625 C 40.144531 -58.859375 41.484375 -59.492188 42.828125 -60.171875 C 46.253906 -61.804688 49.535156 -63.367188 52.671875 -64.859375 C 55.503906 -66.203125 58.375 -67.394531 61.28125 -68.4375 C 64.1875 -69.476562 67.09375 -70.1875 70 -70.5625 C 74.550781 -70.863281 77.347656 -69.859375 78.390625 -67.546875 C 79.429688 -65.234375 78.5 -62.023438 75.59375 -57.921875 C 72.6875 -54.203125 69.78125 -50.515625 66.875 -46.859375 C 63.59375 -43.429688 62.285156 -40.820312 62.953125 -39.03125 C 63.628906 -37.238281 70.601562 -39.289062 83.875 -45.1875 L 94.046875 -50.09375 C 103.816406 -55.164062 108.773438 -57.066406 108.921875 -55.796875 Z M 108.921875 -55.796875" transform="translate(287.39 427.14)"/></g></g></g><g fill="#FFF"><g><g><path d="M 109.03125 -58.3125 C 109.332031 -56.414062 106.664062 -53.507812 101.03125 -49.59375 C 95.40625 -45.675781 86.332031 -40.925781 73.8125 -35.34375 C 69.257812 -33.695312 65.921875 -32.390625 63.796875 -31.421875 C 61.671875 -30.453125 59.914062 -29.222656 58.53125 -27.734375 C 57.15625 -26.242188 55.425781 -23.929688 53.34375 -20.796875 C 51.625 -18.484375 49.390625 -15.390625 46.640625 -11.515625 C 43.128906 -6.742188 39.546875 -1.820312 35.890625 3.25 C 28.890625 13.601562 21.285156 23.832031 13.078125 33.9375 C 4.878906 44.039062 -4.15625 52.859375 -14.03125 60.390625 C -23.914062 67.921875 -34.929688 72.914062 -47.078125 75.375 C -59.234375 77.539062 -70.320312 77.875 -80.34375 76.375 C -90.375 74.882812 -99.675781 71.941406 -108.25 67.546875 C -111.675781 65.679688 -114.472656 63.222656 -116.640625 60.171875 C -120.066406 54.578125 -118.203125 48.3125 -111.046875 41.375 C -107.316406 37.945312 -103.289062 34.851562 -98.96875 32.09375 C -90.539062 26.800781 -81.929688 21.957031 -73.140625 17.5625 C -56.890625 9.507812 -40.5625 2.128906 -24.15625 -4.578125 C -7.75 -11.296875 8.6875 -17.785156 25.15625 -24.046875 C 26.28125 -24.492188 27.550781 -24.976562 28.96875 -25.5 C 33.507812 -27.289062 38.128906 -29.078125 42.828125 -30.859375 C 46.109375 -31.910156 48.71875 -33.8125 50.65625 -36.5625 C 51.332031 -37.53125 51.742188 -38.425781 51.890625 -39.25 C 51.890625 -39.769531 51.703125 -40.066406 51.328125 -40.140625 C 50.953125 -40.222656 50.46875 -40.113281 49.875 -39.8125 C 48.164062 -38.988281 46.335938 -38.054688 44.390625 -37.015625 C 43.421875 -36.566406 42.34375 -36.007812 41.15625 -35.34375 C 34.894531 -32.351562 29.078125 -31.046875 23.703125 -31.421875 C 14.984375 -31.421875 11.96875 -35.335938 14.65625 -43.171875 C 16.882812 -49.578125 20.21875 -55.648438 24.65625 -61.390625 C 29.09375 -67.128906 34.40625 -72.535156 40.59375 -77.609375 C 41.1875 -78.128906 41.945312 -78.554688 42.875 -78.890625 C 43.8125 -79.234375 44.726562 -79.476562 45.625 -79.625 C 45.769531 -79.625 45.992188 -79.695312 46.296875 -79.84375 C 48.015625 -80 49.132812 -79.585938 49.65625 -78.609375 C 50.175781 -77.640625 49.914062 -76.410156 48.875 -74.921875 C 47.15625 -72.835938 45.398438 -70.710938 43.609375 -68.546875 C 42.191406 -66.910156 40.773438 -65.269531 39.359375 -63.625 C 33.773438 -57.21875 29.863281 -50.507812 27.625 -43.5 C 27.175781 -42.007812 27.414062 -40.925781 28.34375 -40.25 C 29.28125 -39.582031 30.601562 -39.585938 32.3125 -40.265625 C 37.382812 -42.046875 42.160156 -44.578125 46.640625 -47.859375 C 58.410156 -55.910156 69.070312 -65.191406 78.625 -75.703125 C 80.039062 -77.203125 81.472656 -78.472656 82.921875 -79.515625 C 84.378906 -80.554688 86.039062 -81.148438 87.90625 -81.296875 C 90.289062 -81.523438 91.875 -81.023438 92.65625 -79.796875 C 93.4375 -78.566406 93.191406 -76.941406 91.921875 -74.921875 C 87.378906 -68.210938 82.757812 -61.578125 78.0625 -55.015625 C 77.757812 -54.492188 77.382812 -54.007812 76.9375 -53.5625 C 75.820312 -52.070312 74.703125 -50.503906 73.578125 -48.859375 C 72.460938 -47.222656 71.679688 -45.789062 71.234375 -44.5625 C 70.785156 -43.332031 71.082031 -42.71875 72.125 -42.71875 C 76.53125 -43.539062 83.707031 -46.820312 93.65625 -52.5625 C 103.613281 -58.300781 108.738281 -60.21875 109.03125 -58.3125 Z M 34.109375 -13.421875 C 34.179688 -13.796875 34.40625 -14.128906 34.78125 -14.421875 C 35.519531 -15.242188 36.09375 -16.140625 36.5 -17.109375 C 36.914062 -18.078125 37.050781 -19.082031 36.90625 -20.125 C 36.382812 -20.125 35.972656 -20.125 35.671875 -20.125 C 34.484375 -19.90625 33.441406 -19.644531 32.546875 -19.34375 C 30.679688 -18.675781 28.78125 -17.929688 26.84375 -17.109375 C 11.476562 -11.066406 -3.914062 -4.84375 -19.34375 1.5625 C -34.78125 7.976562 -50.140625 14.800781 -65.421875 22.03125 C -74.660156 26.425781 -83.753906 31.570312 -92.703125 37.46875 C -100.015625 42.382812 -104.226562 46.6875 -105.34375 50.375 C -106.457031 54.070312 -104.445312 57.410156 -99.3125 60.390625 C -87.75 67.765625 -73.507812 70.785156 -56.59375 69.453125 C -45.03125 68.328125 -34.421875 64.109375 -24.765625 56.796875 C -15.109375 49.492188 -6.21875 40.753906 1.90625 30.578125 C 10.03125 20.410156 17.597656 10.253906 24.609375 0.109375 C 27.734375 -4.660156 30.898438 -9.171875 34.109375 -13.421875 Z M 34.109375 -13.421875" transform="translate(370.736 427.14)"/></g></g></g><g fill="#FFF"><g><g><path d="M 27.40625 -26.5 L 27.0625 -26.5 C 16.320312 -26.65625 10.078125 -29.0625 8.328125 -33.71875 C 6.578125 -38.375 8.984375 -44.582031 15.546875 -52.34375 C 20.835938 -58.226562 26.691406 -63.367188 33.109375 -67.765625 C 35.265625 -69.253906 37.367188 -70.445312 39.421875 -71.34375 C 41.472656 -72.238281 43.578125 -72.6875 45.734375 -72.6875 C 47.078125 -72.914062 48.421875 -72.691406 49.765625 -72.015625 C 50.285156 -71.867188 50.769531 -71.679688 51.21875 -71.453125 C 52.5625 -71.679688 53.941406 -72.09375 55.359375 -72.6875 C 55.734375 -72.914062 56.179688 -73.101562 56.703125 -73.25 C 59.535156 -74.21875 62.289062 -74.628906 64.96875 -74.484375 C 66.09375 -74.484375 67.25 -74.484375 68.4375 -74.484375 C 72.613281 -73.804688 75.28125 -71.957031 76.4375 -68.9375 C 77.59375 -65.925781 77.050781 -62.253906 74.8125 -57.921875 C 73.46875 -55.316406 71.753906 -52.859375 69.671875 -50.546875 C 55.503906 -35.191406 41.632812 -27.175781 28.0625 -26.5 Z M 59.71875 -66.546875 C 53.90625 -66.765625 48.035156 -65.066406 42.109375 -61.453125 C 36.179688 -57.835938 31.238281 -53.679688 27.28125 -48.984375 C 23.332031 -44.285156 21.320312 -40.425781 21.25 -37.40625 C 21.175781 -34.382812 24.007812 -33.546875 29.75 -34.890625 C 36.238281 -36.679688 42.628906 -40.035156 48.921875 -44.953125 C 55.222656 -49.878906 59.695312 -54.554688 62.34375 -58.984375 C 64.988281 -63.421875 64.113281 -65.941406 59.71875 -66.546875 Z M 59.71875 -66.546875" transform="translate(453.523 427.14)"/></g></g></g><g fill="#FFF"><g><g><path d="M 137.21875 -56.03125 C 140.425781 -57.664062 142.625 -58.070312 143.8125 -57.25 C 145.007812 -56.4375 143.628906 -54.128906 139.671875 -50.328125 C 134.753906 -45.921875 127.171875 -41.21875 116.921875 -36.21875 C 106.671875 -31.226562 98.410156 -29.050781 92.140625 -29.6875 C 85.878906 -30.320312 85.734375 -35.113281 91.703125 -44.0625 C 97.671875 -53.007812 100.96875 -58.019531 101.59375 -59.09375 C 102.226562 -60.175781 102.25 -60.789062 101.65625 -60.9375 C 101.0625 -61.09375 99.3125 -60.351562 96.40625 -58.71875 C 88.050781 -54.09375 79.734375 -49.242188 71.453125 -44.171875 C 67.953125 -42.085938 64.414062 -39.890625 60.84375 -37.578125 C 58.675781 -36.085938 56.4375 -34.597656 54.125 -33.109375 C 54.125 -33.109375 54.015625 -33.03125 53.796875 -32.875 C 51.179688 -30.9375 48.3125 -29.632812 45.1875 -28.96875 C 43.769531 -28.59375 42.390625 -28.457031 41.046875 -28.5625 C 39.703125 -28.675781 38.691406 -29.21875 38.015625 -30.1875 C 37.347656 -31.3125 37.382812 -32.488281 38.125 -33.71875 C 38.875 -34.945312 40.476562 -36.789062 42.9375 -39.25 C 45.40625 -41.707031 48.128906 -44.410156 51.109375 -47.359375 C 54.085938 -50.304688 55.800781 -52.113281 56.25 -52.78125 C 56.695312 -53.457031 56.8125 -54.128906 56.59375 -54.796875 C 56.363281 -55.460938 55.875 -55.664062 55.125 -55.40625 C 54.382812 -55.144531 51.421875 -53.539062 46.234375 -50.59375 C 41.054688 -47.65625 33.957031 -43.539062 24.9375 -38.25 C 20.757812 -35.789062 16.660156 -33.253906 12.640625 -30.640625 C 11.515625 -29.816406 10.320312 -29.070312 9.0625 -28.40625 C 6.070312 -26.46875 3.160156 -25.425781 0.328125 -25.28125 C -1.679688 -25.125 -2.984375 -25.566406 -3.578125 -26.609375 C -4.171875 -27.660156 -3.835938 -29.078125 -2.578125 -30.859375 C -1.609375 -32.203125 -0.597656 -33.4375 0.453125 -34.5625 C 1.046875 -35.082031 1.53125 -35.601562 1.90625 -36.125 C 12.113281 -48.050781 22.25 -60.015625 32.3125 -72.015625 C 32.613281 -72.316406 32.914062 -72.726562 33.21875 -73.25 C 34.40625 -74.519531 35.519531 -75.75 36.5625 -76.9375 C 39.101562 -78.875 41.488281 -79.507812 43.71875 -78.84375 C 46.257812 -78.019531 46.75 -76.378906 45.1875 -73.921875 C 42.425781 -70.191406 39.773438 -66.5 37.234375 -62.84375 C 35.972656 -61.207031 34.707031 -59.566406 33.4375 -57.921875 C 31.195312 -55.015625 30.132812 -53.148438 30.25 -52.328125 C 30.363281 -51.515625 32.429688 -52.078125 36.453125 -54.015625 C 39.210938 -55.503906 41.9375 -56.992188 44.625 -58.484375 C 47.90625 -60.273438 51.035156 -61.914062 54.015625 -63.40625 C 58.710938 -65.71875 63.332031 -67.691406 67.875 -69.328125 C 70.113281 -70.148438 72.332031 -70.765625 74.53125 -71.171875 C 76.726562 -71.585938 78.460938 -71.125 79.734375 -69.78125 C 80.703125 -68.664062 80.832031 -67.398438 80.125 -65.984375 C 79.414062 -64.566406 78.539062 -63.222656 77.5 -61.953125 C 75.5625 -59.492188 74.554688 -57.925781 74.484375 -57.25 C 74.410156 -56.582031 74.929688 -56.453125 76.046875 -56.859375 C 77.160156 -57.273438 79.226562 -58.226562 82.25 -59.71875 C 85.269531 -61.207031 88.492188 -62.847656 91.921875 -64.640625 C 96.398438 -66.953125 100.988281 -69.148438 105.6875 -71.234375 C 109.707031 -73.398438 113.691406 -74.707031 117.640625 -75.15625 C 122.859375 -75.519531 124.179688 -73.445312 121.609375 -68.9375 C 119.046875 -64.425781 115.300781 -59.054688 110.375 -52.828125 C 105.457031 -46.609375 103.800781 -42.789062 105.40625 -41.375 C 107.007812 -39.957031 112.410156 -41.875 121.609375 -47.125 C 130.816406 -52.382812 136.019531 -55.351562 137.21875 -56.03125 Z M 137.21875 -56.03125" transform="translate(514.279 427.14)"/></g></g></g><g fill="#FFF"><g><g><path d="M 27.40625 -26.5 L 27.0625 -26.5 C 16.320312 -26.65625 10.078125 -29.0625 8.328125 -33.71875 C 6.578125 -38.375 8.984375 -44.582031 15.546875 -52.34375 C 20.835938 -58.226562 26.691406 -63.367188 33.109375 -67.765625 C 35.265625 -69.253906 37.367188 -70.445312 39.421875 -71.34375 C 41.472656 -72.238281 43.578125 -72.6875 45.734375 -72.6875 C 47.078125 -72.914062 48.421875 -72.691406 49.765625 -72.015625 C 50.285156 -71.867188 50.769531 -71.679688 51.21875 -71.453125 C 52.5625 -71.679688 53.941406 -72.09375 55.359375 -72.6875 C 55.734375 -72.914062 56.179688 -73.101562 56.703125 -73.25 C 59.535156 -74.21875 62.289062 -74.628906 64.96875 -74.484375 C 66.09375 -74.484375 67.25 -74.484375 68.4375 -74.484375 C 72.613281 -73.804688 75.28125 -71.957031 76.4375 -68.9375 C 77.59375 -65.925781 77.050781 -62.253906 74.8125 -57.921875 C 73.46875 -55.316406 71.753906 -52.859375 69.671875 -50.546875 C 55.503906 -35.191406 41.632812 -27.175781 28.0625 -26.5 Z M 59.71875 -66.546875 C 53.90625 -66.765625 48.035156 -65.066406 42.109375 -61.453125 C 36.179688 -57.835938 31.238281 -53.679688 27.28125 -48.984375 C 23.332031 -44.285156 21.320312 -40.425781 21.25 -37.40625 C 21.175781 -34.382812 24.007812 -33.546875 29.75 -34.890625 C 36.238281 -36.679688 42.628906 -40.035156 48.921875 -44.953125 C 55.222656 -49.878906 59.695312 -54.554688 62.34375 -58.984375 C 64.988281 -63.421875 64.113281 -65.941406 59.71875 -66.546875 Z M 59.71875 -66.546875" transform="translate(633.97 427.14)"/></g></g></g></svg>